<?xml version="1.0" standalone="no"?>
<!DOCTYPE svg PUBLIC "-//W3C//DTD SVG 20010904//EN"
 "http://www.w3.org/TR/2001/REC-SVG-20010904/DTD/svg10.dtd">
<svg version="1.0" xmlns="http://www.w3.org/2000/svg"
 width="700.000000pt" height="700.000000pt" viewBox="0 0 700.000000 700.000000"
 preserveAspectRatio="xMidYMid meet">
<metadata>
Created by potrace 1.14, written by Peter Selinger 2001-2017
</metadata>
<g transform="translate(0.000000,700.000000) scale(0.100000,-0.100000)"
fill="#000000" stroke="none">
<path d="M1240 6993 c-80 -9 -264 -56 -343 -87 -230 -90 -430 -235 -581 -421
-72 -89 -65 -79 -110 -154 -80 -131 -130 -256 -174 -431 l-27 -105 -2 -2255
c-2 -2305 -3 -2263 32 -2450 13 -74 78 -249 125 -339 110 -209 265 -382 457
-512 40 -27 74 -49 77 -49 3 0 27 -13 55 -29 70 -42 227 -99 356 -130 l110
-26 2285 0 2285 0 115 27 c419 100 745 350 940 721 43 81 93 204 105 257 1 8
8 33 14 55 6 22 13 58 17 80 3 22 10 60 14 85 5 25 9 1048 9 2275 0 2110 -1
2235 -18 2325 -20 105 -48 213 -61 238 -4 10 -20 47 -35 84 -104 260 -328 513
-582 658 -132 76 -306 141 -438 165 -16 2 -41 8 -55 12 -25 8 -4505 13 -4570
6z"/>
</g>
</svg>
